<svg version="1.1" id="Layer_1" xmlns="http://www.w3.org/2000/svg" xmlns:xlink="http://www.w3.org/1999/xlink" x="0px" y="0px"
	 width="100%" viewBox="0 0 1303 568" enable-background="new 0 0 1303 568" xml:space="preserve">
<path fill="#FFFFFF" opacity="1.000000" stroke="none" 
	d="
M536.000000,569.000000 
	C357.762756,569.000000 179.525497,569.000000 1.000000,569.000000 
	C1.000000,487.973358 1.000000,406.946381 1.468657,325.459717 
	C14.192605,325.000000 26.447895,325.000000 39.000000,325.000000 
	C39.000000,216.526749 39.000000,108.763374 39.000000,1.000000 
	C460.598145,1.000000 882.196289,1.000000 1303.897217,1.000000 
	C1303.897217,190.233994 1303.897217,379.468079 1303.897217,569.000000 
	C1054.306519,569.000000 804.612976,569.000000 554.620728,568.666565 
	C566.268372,565.053467 574.781677,558.002441 580.230286,546.636902 
	C585.219727,536.229126 586.915588,525.151184 586.730225,514.112427 
	C586.485962,499.572510 584.315918,485.064972 583.073669,471.623047 
	C594.198975,466.974335 605.643616,462.192139 617.113831,457.399323 
	C619.916748,463.362335 624.182434,468.937714 632.075134,469.943481 
	C644.693604,471.551453 655.381958,466.955353 664.660522,458.772430 
	C670.178284,453.906250 675.393494,448.697021 680.579224,443.798401 
	C681.787354,447.640076 682.803528,451.772980 684.372864,455.683868 
	C688.278137,465.415863 699.174500,470.930969 709.342896,468.827362 
	C725.769409,465.429077 740.781616,458.826965 753.890869,449.745636 
	C759.297546,454.378174 764.132568,459.395996 769.787537,463.192566 
	C783.545898,472.429626 798.921631,471.409058 814.133423,468.312317 
	C828.757446,465.335236 841.394714,457.659637 853.589783,449.520905 
	C855.870422,458.928864 861.718689,464.872559 870.539978,467.983612 
	C883.207886,472.451263 896.221497,471.655334 909.204590,470.039093 
	C935.576294,466.756195 959.357483,456.585571 981.678711,442.440063 
	C983.260254,445.575012 984.669617,448.941132 986.559326,452.011597 
	C993.291443,462.950348 1001.767700,470.667328 1015.973022,470.183167 
	C1024.885498,469.879395 1032.681396,466.856445 1040.334839,463.168518 
	C1050.188965,458.420105 1059.755615,453.075378 1069.504150,447.957031 
	C1070.076416,448.713226 1070.703369,449.182709 1070.828735,449.760956 
	C1072.916504,459.386108 1079.124390,464.997040 1088.165039,468.124023 
	C1100.736084,472.472107 1113.538330,471.528625 1126.352905,470.028839 
	C1149.032959,467.374390 1169.637939,458.735962 1189.646729,448.189850 
	C1196.936523,444.347656 1201.516968,440.025024 1200.190063,430.815094 
	C1199.219849,424.080658 1200.000000,417.094025 1200.000000,410.632568 
	C1184.279663,418.704224 1169.052368,426.522705 1152.515381,435.013672 
	C1153.090454,428.177490 1153.500977,422.802795 1154.003662,417.436737 
	C1154.855347,408.344910 1152.384888,399.757202 1149.583984,391.353607 
	C1146.457642,381.973572 1145.553223,373.760437 1154.553589,366.614960 
	C1158.236328,363.691162 1160.788452,358.979431 1162.996338,354.643921 
	C1166.686157,347.398346 1163.590576,339.266022 1155.812134,337.664978 
	C1147.838867,336.023773 1138.845093,334.867889 1132.306763,341.441406 
	C1125.060913,348.726074 1118.523804,356.763397 1112.107544,364.815277 
	C1099.126221,381.105957 1088.195312,398.999084 1072.001465,412.727570 
	C1060.490479,422.486084 1048.492554,431.180298 1034.448486,436.748260 
	C1016.586182,443.829926 1004.474243,435.206177 1004.991760,416.247986 
	C1005.367676,402.477325 1005.730530,388.705566 1005.952820,374.931946 
	C1006.004883,371.703094 1006.390137,369.043213 1008.758301,366.377960 
	C1012.656555,361.990631 1015.919128,357.027954 1019.331055,352.223572 
	C1020.950317,349.943390 1022.660095,348.845337 1025.752930,348.892273 
	C1041.248657,349.127472 1056.749756,349.008667 1072.249023,348.985962 
	C1073.729248,348.983795 1075.371704,349.162354 1076.659058,348.607666 
	C1080.527222,346.940948 1083.064575,339.086395 1081.764282,333.543121 
	C1080.273071,327.186584 1078.718140,326.063507 1071.792236,325.988007 
	C1060.617188,325.866119 1049.443115,325.667053 1037.750122,325.492859 
	C1043.073608,315.573578 1047.977539,306.890350 1052.453613,297.992004 
	C1059.626465,283.732880 1062.312988,268.743011 1058.012939,253.089951 
	C1055.938232,245.537277 1054.208130,237.453629 1047.558105,232.336746 
	C1036.618286,223.919174 1022.657532,226.829742 1014.274658,237.632629 
	C1007.186340,246.767197 1001.188538,257.000214 996.208435,267.461304 
	C988.042725,284.613861 983.166260,302.979919 979.468445,322.000000 
	C974.121033,322.000000 968.810730,321.870209 963.509644,322.036011 
	C958.068848,322.206177 952.628601,322.563812 947.203430,323.022034 
	C939.333252,323.686798 937.001648,327.297913 939.423401,334.840454 
	C939.726501,335.784454 940.215332,336.668762 940.725769,337.824371 
	C929.129761,336.518951 921.014648,334.997986 913.679382,342.823151 
	C907.097290,349.844940 901.065552,357.403229 895.053162,364.934113 
	C882.055481,381.214691 871.031067,399.021851 854.915100,412.838745 
	C840.798096,424.941895 825.315491,434.001678 807.401245,438.706848 
	C795.891663,441.729828 787.978271,438.078827 783.464050,428.475708 
	C783.717896,428.331848 783.956421,428.132965 784.229980,428.050720 
	C807.837341,420.953949 826.435242,407.732849 836.696228,384.603912 
	C843.430542,369.424286 839.276489,352.667358 825.544495,342.612000 
	C814.804077,334.747223 790.904724,334.946808 778.729126,343.817230 
	C767.803284,351.777191 759.851379,362.060791 755.059265,374.746582 
	C748.806641,391.298340 743.548889,408.016052 746.817688,427.215607 
	C737.676147,431.236664 728.692017,435.498230 719.458374,439.124329 
	C714.562805,441.046875 712.019104,438.586853 710.895569,433.614624 
	C709.310303,426.598114 710.651306,419.971252 711.923157,413.156952 
	C715.705139,392.894135 719.127625,372.564331 722.871216,352.294098 
	C724.451477,343.737549 722.160156,337.329559 715.363159,336.419556 
	C708.814514,335.542847 701.626709,334.188538 695.551758,338.343719 
	C693.229187,339.932312 690.770203,342.681427 690.221069,345.290497 
	C685.237427,368.971863 680.776245,392.762543 675.908142,416.469086 
	C674.161682,424.973724 670.634399,432.676239 662.859863,437.572937 
	C656.840881,441.363922 651.125549,439.290833 650.146790,432.231567 
	C649.477356,427.403137 650.258606,422.261047 651.040771,417.362885 
	C654.964783,392.789246 659.175476,368.261200 663.024475,343.676270 
	C663.325439,341.754242 662.235901,338.712646 660.740662,337.579193 
	C656.126587,334.081665 642.743408,335.803558 638.462646,340.080109 
	C631.196533,347.339172 627.909851,356.578369 626.035278,366.373352 
	C623.237732,380.990448 621.127075,395.757751 617.775330,410.241577 
	C616.267761,416.756226 617.927368,424.865021 609.646301,429.035736 
	C601.801147,432.986877 594.858276,438.855347 586.840271,442.303070 
	C578.305176,445.973114 573.618103,441.309265 576.060791,432.311523 
	C579.656494,419.066620 583.650513,405.926849 587.653137,392.796631 
	C590.102417,384.761810 592.878174,376.858978 592.027710,368.219666 
	C590.861145,356.369232 585.911011,346.926147 575.206726,341.066010 
	C566.996765,336.571411 558.075134,336.632935 549.034241,336.947632 
	C529.371521,337.632050 514.895569,347.374481 503.734253,362.709351 
	C490.449402,380.961761 487.295898,400.949158 494.533173,422.608917 
	C492.092957,424.167877 489.725220,425.958344 487.124054,427.294434 
	C475.587402,433.220459 464.244873,439.659790 450.533936,439.060089 
	C442.783997,438.721130 438.264740,435.730652 435.681671,428.245728 
	C459.435638,421.137238 478.281372,408.001892 488.664001,384.686768 
	C495.419312,369.517151 491.236237,352.701569 477.625244,342.653931 
	C466.913666,334.746613 442.470001,335.030243 430.398834,344.057465 
	C418.689545,352.814026 410.865387,364.160767 405.860901,377.874390 
	C398.734192,397.403290 394.153778,416.924957 401.640167,437.448242 
	C401.957275,438.317535 400.928833,440.434753 400.002075,440.881744 
	C392.089233,444.698425 384.314484,449.100677 375.988190,451.681763 
	C366.529114,454.613922 361.116455,451.319305 357.960602,441.545837 
	C354.506470,430.848511 351.845123,419.888489 349.023804,408.994934 
	C344.181793,390.299133 335.249146,374.765442 316.540344,366.432892 
	C319.635803,365.929260 322.457001,365.402985 325.297455,365.018738 
	C348.213837,361.918610 368.637756,353.966583 384.989929,336.662476 
	C404.934967,315.556366 405.337769,282.905365 385.232727,261.682953 
	C377.223755,253.228867 367.481964,247.652573 356.609070,244.064255 
	C348.402191,241.355804 340.047577,237.791275 331.618103,237.360641 
	C318.312836,236.680908 304.770538,237.406342 291.540985,239.149292 
	C263.612030,242.828812 239.307663,255.309891 218.190948,273.528198 
	C200.554016,288.744293 186.627243,307.052979 177.085007,328.541504 
	C165.459457,354.721527 159.663055,381.903534 163.110153,410.541412 
	C164.415344,421.384705 166.161880,432.324829 169.230484,442.773499 
	C174.948807,462.244629 184.282761,479.767273 202.833328,490.171692 
	C216.157440,497.644745 230.415665,498.822815 244.580658,492.649292 
	C258.513245,486.577057 264.744293,473.783051 269.879303,460.681305 
	C277.881226,440.264740 280.718842,418.606476 284.004303,397.089233 
	C285.380066,388.079254 286.810394,379.077637 288.199615,370.176331 
	C296.422607,369.486328 302.430267,371.517090 305.150665,379.457550 
	C307.372223,385.942047 310.148224,392.269775 311.910919,398.871918 
	C316.796600,417.171204 321.085052,435.630310 326.002686,453.920532 
	C328.702515,463.961975 334.917480,472.085693 343.033417,478.305450 
	C352.224213,485.348969 363.357300,483.809906 373.699951,482.444397 
	C390.308533,480.251617 405.349335,473.185333 419.742096,464.759674 
	C420.817200,464.130280 422.874298,463.946899 423.844543,464.557587 
	C435.303680,471.770050 448.138916,471.180206 460.403839,469.486572 
	C480.211243,466.751404 496.824799,456.209381 512.890686,444.084991 
	C520.135254,449.837250 529.010864,449.142731 537.918579,449.066681 
	C533.481812,465.153503 529.272644,480.753845 524.864136,496.297668 
	C521.015198,509.868256 517.073303,523.318665 516.871948,537.677429 
	C516.664856,552.443359 522.531250,562.888245 536.000000,569.000000 
z"/>
<path fill="#FFBE37" opacity="1.000000" stroke="none" 
	d="
M536.467957,569.000000 
	C522.531250,562.888245 516.664856,552.443359 516.871948,537.677429 
	C517.073303,523.318665 521.015198,509.868256 524.864136,496.297668 
	C529.272644,480.753845 533.481812,465.153503 537.918579,449.066681 
	C529.010864,449.142731 520.135254,449.837250 512.890686,444.084991 
	C496.824799,456.209381 480.211243,466.751404 460.403839,469.486572 
	C448.138916,471.180206 435.303680,471.770050 423.844543,464.557587 
	C422.874298,463.946899 420.817200,464.130280 419.742096,464.759674 
	C405.349335,473.185333 390.308533,480.251617 373.699951,482.444397 
	C363.357300,483.809906 352.224213,485.348969 343.033417,478.305450 
	C334.917480,472.085693 328.702515,463.961975 326.002686,453.920532 
	C321.085052,435.630310 316.796600,417.171204 311.910919,398.871918 
	C310.148224,392.269775 307.372223,385.942047 305.150665,379.457550 
	C302.430267,371.517090 296.422607,369.486328 288.199615,370.176331 
	C286.810394,379.077637 285.380066,388.079254 284.004303,397.089233 
	C280.718842,418.606476 277.881226,440.264740 269.879303,460.681305 
	C264.744293,473.783051 258.513245,486.577057 244.580658,492.649292 
	C230.415665,498.822815 216.157440,497.644745 202.833328,490.171692 
	C184.282761,479.767273 174.948807,462.244629 169.230484,442.773499 
	C166.161880,432.324829 164.415344,421.384705 163.110153,410.541412 
	C159.663055,381.903534 165.459457,354.721527 177.085007,328.541504 
	C186.627243,307.052979 200.554016,288.744293 218.190948,273.528198 
	C239.307663,255.309891 263.612030,242.828812 291.540985,239.149292 
	C304.770538,237.406342 318.312836,236.680908 331.618103,237.360641 
	C340.047577,237.791275 348.402191,241.355804 356.609070,244.064255 
	C367.481964,247.652573 377.223755,253.228867 385.232727,261.682953 
	C405.337769,282.905365 404.934967,315.556366 384.989929,336.662476 
	C368.637756,353.966583 348.213837,361.918610 325.297455,365.018738 
	C322.457001,365.402985 319.635803,365.929260 316.540344,366.432892 
	C335.249146,374.765442 344.181793,390.299133 349.023804,408.994934 
	C351.845123,419.888489 354.506470,430.848511 357.960602,441.545837 
	C361.116455,451.319305 366.529114,454.613922 375.988190,451.681763 
	C384.314484,449.100677 392.089233,444.698425 400.002075,440.881744 
	C400.928833,440.434753 401.957275,438.317535 401.640167,437.448242 
	C394.153778,416.924957 398.734192,397.403290 405.860901,377.874390 
	C410.865387,364.160767 418.689545,352.814026 430.398834,344.057465 
	C442.470001,335.030243 466.913666,334.746613 477.625244,342.653931 
	C491.236237,352.701569 495.419312,369.517151 488.664001,384.686768 
	C478.281372,408.001892 459.435638,421.137238 435.681671,428.245728 
	C438.264740,435.730652 442.783997,438.721130 450.533936,439.060089 
	C464.244873,439.659790 475.587402,433.220459 487.124054,427.294434 
	C489.725220,425.958344 492.092957,424.167877 494.533173,422.608917 
	C487.295898,400.949158 490.449402,380.961761 503.734253,362.709351 
	C514.895569,347.374481 529.371521,337.632050 549.034241,336.947632 
	C558.075134,336.632935 566.996765,336.571411 575.206726,341.066010 
	C585.911011,346.926147 590.861145,356.369232 592.027710,368.219666 
	C592.878174,376.858978 590.102417,384.761810 587.653137,392.796631 
	C583.650513,405.926849 579.656494,419.066620 576.060791,432.311523 
	C573.618103,441.309265 578.305176,445.973114 586.840271,442.303070 
	C594.858276,438.855347 601.801147,432.986877 609.646301,429.035736 
	C617.927368,424.865021 616.267761,416.756226 617.775330,410.241577 
	C621.127075,395.757751 623.237732,380.990448 626.035278,366.373352 
	C627.909851,356.578369 631.196533,347.339172 638.462646,340.080109 
	C642.743408,335.803558 656.126587,334.081665 660.740662,337.579193 
	C662.235901,338.712646 663.325439,341.754242 663.024475,343.676270 
	C659.175476,368.261200 654.964783,392.789246 651.040771,417.362885 
	C650.258606,422.261047 649.477356,427.403137 650.146790,432.231567 
	C651.125549,439.290833 656.840881,441.363922 662.859863,437.572937 
	C670.634399,432.676239 674.161682,424.973724 675.908142,416.469086 
	C680.776245,392.762543 685.237427,368.971863 690.221069,345.290497 
	C690.770203,342.681427 693.229187,339.932312 695.551758,338.343719 
	C701.626709,334.188538 708.814514,335.542847 715.363159,336.419556 
	C722.160156,337.329559 724.451477,343.737549 722.871216,352.294098 
	C719.127625,372.564331 715.705139,392.894135 711.923157,413.156952 
	C710.651306,419.971252 709.310303,426.598114 710.895569,433.614624 
	C712.019104,438.586853 714.562805,441.046875 719.458374,439.124329 
	C728.692017,435.498230 737.676147,431.236664 746.817688,427.215607 
	C743.548889,408.016052 748.806641,391.298340 755.059265,374.746582 
	C759.851379,362.060791 767.803284,351.777191 778.729126,343.817230 
	C790.904724,334.946808 814.804077,334.747223 825.544495,342.612000 
	C839.276489,352.667358 843.430542,369.424286 836.696228,384.603912 
	C826.435242,407.732849 807.837341,420.953949 784.229980,428.050720 
	C783.956421,428.132965 783.717896,428.331848 783.464050,428.475708 
	C787.978271,438.078827 795.891663,441.729828 807.401245,438.706848 
	C825.315491,434.001678 840.798096,424.941895 854.915100,412.838745 
	C871.031067,399.021851 882.055481,381.214691 895.053162,364.934113 
	C901.065552,357.403229 907.097290,349.844940 913.679382,342.823151 
	C921.014648,334.997986 929.129761,336.518951 940.725769,337.824371 
	C940.215332,336.668762 939.726501,335.784454 939.423401,334.840454 
	C937.001648,327.297913 939.333252,323.686798 947.203430,323.022034 
	C952.628601,322.563812 958.068848,322.206177 963.509644,322.036011 
	C968.810730,321.870209 974.121033,322.000000 979.468445,322.000000 
	C983.166260,302.979919 988.042725,284.613861 996.208435,267.461304 
	C1001.188538,257.000214 1007.186340,246.767197 1014.274658,237.632629 
	C1022.657532,226.829742 1036.618286,223.919174 1047.558105,232.336746 
	C1054.208130,237.453629 1055.938232,245.537277 1058.012939,253.089951 
	C1062.312988,268.743011 1059.626465,283.732880 1052.453613,297.992004 
	C1047.977539,306.890350 1043.073608,315.573578 1037.750122,325.492859 
	C1049.443115,325.667053 1060.617188,325.866119 1071.792236,325.988007 
	C1078.718140,326.063507 1080.273071,327.186584 1081.764282,333.543121 
	C1083.064575,339.086395 1080.527222,346.940948 1076.659058,348.607666 
	C1075.371704,349.162354 1073.729248,348.983795 1072.249023,348.985962 
	C1056.749756,349.008667 1041.248657,349.127472 1025.752930,348.892273 
	C1022.660095,348.845337 1020.950317,349.943390 1019.331055,352.223572 
	C1015.919128,357.027954 1012.656555,361.990631 1008.758301,366.377960 
	C1006.390137,369.043213 1006.004883,371.703094 1005.952820,374.931946 
	C1005.730530,388.705566 1005.367676,402.477325 1004.991760,416.247986 
	C1004.474243,435.206177 1016.586182,443.829926 1034.448486,436.748260 
	C1048.492554,431.180298 1060.490479,422.486084 1072.001465,412.727570 
	C1088.195312,398.999084 1099.126221,381.105957 1112.107544,364.815277 
	C1118.523804,356.763397 1125.060913,348.726074 1132.306763,341.441406 
	C1138.845093,334.867889 1147.838867,336.023773 1155.812134,337.664978 
	C1163.590576,339.266022 1166.686157,347.398346 1162.996338,354.643921 
	C1160.788452,358.979431 1158.236328,363.691162 1154.553589,366.614960 
	C1145.553223,373.760437 1146.457642,381.973572 1149.583984,391.353607 
	C1152.384888,399.757202 1154.855347,408.344910 1154.003662,417.436737 
	C1153.500977,422.802795 1153.090454,428.177490 1152.515381,435.013672 
	C1169.052368,426.522705 1184.279663,418.704224 1200.000000,410.632568 
	C1200.000000,417.094025 1199.219849,424.080658 1200.190063,430.815094 
	C1201.516968,440.025024 1196.936523,444.347656 1189.646729,448.189850 
	C1169.637939,458.735962 1149.032959,467.374390 1126.352905,470.028839 
	C1113.538330,471.528625 1100.736084,472.472107 1088.165039,468.124023 
	C1079.124390,464.997040 1072.916504,459.386108 1070.828735,449.760956 
	C1070.703369,449.182709 1070.076416,448.713226 1069.504150,447.957031 
	C1059.755615,453.075378 1050.188965,458.420105 1040.334839,463.168518 
	C1032.681396,466.856445 1024.885498,469.879395 1015.973022,470.183167 
	C1001.767700,470.667328 993.291443,462.950348 986.559326,452.011597 
	C984.669617,448.941132 983.260254,445.575012 981.678711,442.440063 
	C959.357483,456.585571 935.576294,466.756195 909.204590,470.039093 
	C896.221497,471.655334 883.207886,472.451263 870.539978,467.983612 
	C861.718689,464.872559 855.870422,458.928864 853.589783,449.520905 
	C841.394714,457.659637 828.757446,465.335236 814.133423,468.312317 
	C798.921631,471.409058 783.545898,472.429626 769.787537,463.192566 
	C764.132568,459.395996 759.297546,454.378174 753.890869,449.745636 
	C740.781616,458.826965 725.769409,465.429077 709.342896,468.827362 
	C699.174500,470.930969 688.278137,465.415863 684.372864,455.683868 
	C682.803528,451.772980 681.787354,447.640076 680.579224,443.798401 
	C675.393494,448.697021 670.178284,453.906250 664.660522,458.772430 
	C655.381958,466.955353 644.693604,471.551453 632.075134,469.943481 
	C624.182434,468.937714 619.916748,463.362335 617.113831,457.399323 
	C605.643616,462.192139 594.198975,466.974335 583.073669,471.623047 
	C584.315918,485.064972 586.485962,499.572510 586.730225,514.112427 
	C586.915588,525.151184 585.219727,536.229126 580.230286,546.636902 
	C574.781677,558.002441 566.268372,565.053467 554.161011,568.666565 
	C548.311951,569.000000 542.623962,569.000000 536.467957,569.000000 
M292.108337,337.800964 
	C292.108337,339.401520 292.108337,341.002075 292.108337,343.741211 
	C301.000824,342.785950 309.357269,342.249420 317.587128,340.925964 
	C332.817871,338.476715 347.001129,333.354706 357.262939,321.111572 
	C365.957855,310.737793 368.390411,295.587921 358.348663,283.788361 
	C349.974152,273.947845 338.849152,269.150574 326.594116,268.204010 
	C303.272186,266.402649 280.745697,269.556641 259.868286,281.459106 
	C241.135376,292.138977 227.053970,307.063690 217.080658,325.903320 
	C201.265060,355.779022 195.204514,387.596924 198.963486,421.262482 
	C200.331268,433.512390 203.622971,445.006805 211.019730,455.068970 
	C216.431076,462.430328 223.611328,466.273041 232.797577,464.911316 
	C239.861267,463.864166 241.818390,457.515228 244.408554,452.119659 
	C251.755341,436.815460 252.257278,420.130798 253.992310,403.704315 
	C255.010422,394.065308 255.955902,384.418579 256.929077,374.774841 
	C257.374756,370.358246 257.433319,366.594147 251.813934,364.757782 
	C247.709641,363.416565 244.074387,360.510162 240.381729,358.071747 
	C235.638794,354.939728 233.976730,348.075256 236.285431,341.433929 
	C238.038651,336.390533 242.338821,336.080505 246.803238,335.965210 
	C251.492111,335.844147 256.173859,335.447113 260.181793,335.210602 
	C261.609863,327.856567 262.347595,321.455536 264.154724,315.372162 
	C266.751343,306.630951 273.468109,296.766632 285.891144,297.701141 
	C292.550629,298.202026 296.492432,302.084473 295.927490,308.173248 
	C295.033875,317.804626 293.668457,327.392212 292.108337,337.800964 
M945.160767,341.694977 
	C945.773804,343.689545 946.670654,345.645172 946.950745,347.685394 
	C948.147095,356.401245 942.164062,362.008881 936.980896,367.143982 
	C930.705933,373.360718 928.056213,379.433105 931.834778,387.749390 
	C932.700439,389.654449 932.903870,391.855133 933.460815,393.906525 
	C935.747559,402.330444 938.045776,410.705475 936.739380,419.640045 
	C936.063721,424.260803 936.094055,428.984772 935.765625,434.307770 
	C944.754456,430.116211 952.801025,426.470825 960.745728,422.615631 
	C964.878662,420.610138 968.903625,418.351196 972.817993,415.947052 
	C973.848389,415.314178 974.928101,413.690155 974.884583,412.563782 
	C974.687683,407.472900 973.799133,402.402527 973.708557,397.315033 
	C973.520325,386.739441 973.518738,376.154083 973.754639,365.579773 
	C973.904297,358.870087 974.619812,352.173004 975.081238,345.474609 
	C967.812073,343.975189 961.133972,342.406342 954.381104,341.289398 
	C951.230591,340.768280 947.935364,341.122162 945.160767,341.694977 
M538.898865,429.919250 
	C544.259766,430.909363 543.983215,426.184113 544.847229,423.427032 
	C547.033386,416.451691 548.319336,409.196808 550.443604,402.198914 
	C553.659729,391.604065 557.391541,381.165466 560.582153,370.563538 
	C560.956604,369.319275 559.731934,366.773743 558.510864,366.008179 
	C552.563171,362.279633 546.466919,363.370911 540.815918,366.779724 
	C526.816650,375.224518 518.362244,396.509460 523.437195,412.520111 
	C525.788391,419.937805 530.785889,426.028992 538.898865,429.919250 
M1121.942871,433.884033 
	C1121.327637,422.304535 1123.152588,410.579956 1120.543457,398.472443 
	C1108.253418,411.149261 1096.630127,423.138550 1084.372314,435.782257 
	C1086.803955,437.885010 1089.078003,439.576294 1091.026733,441.583313 
	C1100.535889,451.377014 1117.584717,451.438843 1121.942871,433.884033 
M880.576416,446.162445 
	C893.590454,452.028534 904.153564,444.693787 904.919800,431.620941 
	C905.359558,424.118195 905.114685,416.566040 904.947205,409.041290 
	C904.873535,405.729065 904.225098,402.429657 903.795410,398.763977 
	C902.649475,399.333588 902.130737,399.446747 901.824951,399.764740 
	C894.934387,406.930603 888.065918,414.117737 881.198120,421.305481 
	C880.626343,421.903839 879.502075,422.708221 879.624939,423.124542 
	C881.098145,428.114410 876.456604,429.460297 874.236023,432.121521 
	C872.902466,433.719788 870.799133,434.675812 868.270813,436.466461 
	C873.036316,440.379333 876.433167,443.168365 880.576416,446.162445 
M546.626526,541.997620 
	C549.396240,540.855530 553.111450,540.460815 554.732178,538.410522 
	C557.788452,534.544250 560.445557,529.963257 561.838745,525.256165 
	C566.050354,511.027435 563.742676,496.459198 562.828674,482.025055 
	C562.574219,478.006165 561.241089,474.055603 560.402832,470.073700 
	C558.206665,474.140930 557.049561,478.177338 555.905640,482.217499 
	C551.335205,498.359253 546.480042,514.430176 542.426819,530.700867 
	C541.538391,534.267456 539.219238,539.904480 546.626526,541.997620 
M1034.912354,281.206299 
	C1035.885254,277.579956 1036.965820,273.978394 1037.808472,270.322021 
	C1039.440186,263.241058 1035.159790,257.483704 1029.377930,259.121307 
	C1025.701538,260.162567 1024.953491,263.698273 1023.376038,266.846191 
	C1014.510620,284.537170 1011.201660,303.795776 1006.435364,322.609619 
	C1010.786743,323.551361 1013.927063,323.926086 1016.207520,318.901794 
	C1021.891785,306.378082 1028.388916,294.223328 1034.912354,281.206299 
M431.643036,401.806915 
	C431.409332,403.019440 431.175598,404.231964 430.870026,405.817261 
	C447.061493,402.673431 458.161072,393.862915 465.058960,379.699402 
	C467.414825,374.862030 465.629944,370.435699 462.828949,366.373871 
	C460.218536,362.588531 455.866638,363.236359 452.874603,364.399261 
	C448.750702,366.002136 444.016602,368.563904 441.829346,372.120453 
	C436.452240,380.863892 432.224121,390.358459 431.643036,401.806915 
M809.236572,364.802246 
	C801.919556,361.881683 793.653625,365.947876 789.890564,371.885773 
	C783.468323,382.019592 779.823547,393.311829 779.124390,405.479462 
	C791.674866,404.217194 800.562134,397.120605 808.136780,388.223755 
	C815.591858,379.467407 815.869324,372.452118 809.236572,364.802246 
z"/>
<path fill="#FFBE37" opacity="1.000000" stroke="none" 
	d="
M38.531342,1.000000 
	C39.000000,108.763374 39.000000,216.526749 39.000000,325.000000 
	C26.447895,325.000000 14.192605,325.000000 1.468657,325.000000 
	C1.000000,216.999985 1.000000,108.999977 1.000000,1.000000 
	C13.425894,1.000000 25.744287,1.000000 38.531342,1.000000 
z"/>
<path fill="#FFFFFF" opacity="1.000000" stroke="none" 
	d="
M292.305511,337.399658 
	C293.668457,327.392212 295.033875,317.804626 295.927490,308.173248 
	C296.492432,302.084473 292.550629,298.202026 285.891144,297.701141 
	C273.468109,296.766632 266.751343,306.630951 264.154724,315.372162 
	C262.347595,321.455536 261.609863,327.856567 260.181793,335.210602 
	C256.173859,335.447113 251.492111,335.844147 246.803238,335.965210 
	C242.338821,336.080505 238.038651,336.390533 236.285431,341.433929 
	C233.976730,348.075256 235.638794,354.939728 240.381729,358.071747 
	C244.074387,360.510162 247.709641,363.416565 251.813934,364.757782 
	C257.433319,366.594147 257.374756,370.358246 256.929077,374.774841 
	C255.955902,384.418579 255.010422,394.065308 253.992310,403.704315 
	C252.257278,420.130798 251.755341,436.815460 244.408554,452.119659 
	C241.818390,457.515228 239.861267,463.864166 232.797577,464.911316 
	C223.611328,466.273041 216.431076,462.430328 211.019730,455.068970 
	C203.622971,445.006805 200.331268,433.512390 198.963486,421.262482 
	C195.204514,387.596924 201.265060,355.779022 217.080658,325.903320 
	C227.053970,307.063690 241.135376,292.138977 259.868286,281.459106 
	C280.745697,269.556641 303.272186,266.402649 326.594116,268.204010 
	C338.849152,269.150574 349.974152,273.947845 358.348663,283.788361 
	C368.390411,295.587921 365.957855,310.737793 357.262939,321.111572 
	C347.001129,333.354706 332.817871,338.476715 317.587128,340.925964 
	C309.357269,342.249420 301.000824,342.785950 292.108337,343.741211 
	C292.108337,341.002075 292.108337,339.401520 292.305511,337.399658 
z"/>
<path fill="#FFFFFF" opacity="1.000000" stroke="none" 
	d="
M944.933228,341.387207 
	C947.935364,341.122162 951.230591,340.768280 954.381104,341.289398 
	C961.133972,342.406342 967.812073,343.975189 975.081238,345.474609 
	C974.619812,352.173004 973.904297,358.870087 973.754639,365.579773 
	C973.518738,376.154083 973.520325,386.739441 973.708557,397.315033 
	C973.799133,402.402527 974.687683,407.472900 974.884583,412.563782 
	C974.928101,413.690155 973.848389,415.314178 972.817993,415.947052 
	C968.903625,418.351196 964.878662,420.610138 960.745728,422.615631 
	C952.801025,426.470825 944.754456,430.116211 935.765625,434.307770 
	C936.094055,428.984772 936.063721,424.260803 936.739380,419.640045 
	C938.045776,410.705475 935.747559,402.330444 933.460815,393.906525 
	C932.903870,391.855133 932.700439,389.654449 931.834778,387.749390 
	C928.056213,379.433105 930.705933,373.360718 936.980896,367.143982 
	C942.164062,362.008881 948.147095,356.401245 946.950745,347.685394 
	C946.670654,345.645172 945.773804,343.689545 944.933228,341.387207 
z"/>
<path fill="#FFFFFF" opacity="1.000000" stroke="none" 
	d="
M538.522217,429.765961 
	C530.785889,426.028992 525.788391,419.937805 523.437195,412.520111 
	C518.362244,396.509460 526.816650,375.224518 540.815918,366.779724 
	C546.466919,363.370911 552.563171,362.279633 558.510864,366.008179 
	C559.731934,366.773743 560.956604,369.319275 560.582153,370.563538 
	C557.391541,381.165466 553.659729,391.604065 550.443604,402.198914 
	C548.319336,409.196808 547.033386,416.451691 544.847229,423.427032 
	C543.983215,426.184113 544.259766,430.909363 538.522217,429.765961 
z"/>
<path fill="#FFFFFF" opacity="1.000000" stroke="none" 
	d="
M1121.820557,434.300964 
	C1117.584717,451.438843 1100.535889,451.377014 1091.026733,441.583313 
	C1089.078003,439.576294 1086.803955,437.885010 1084.372314,435.782257 
	C1096.630127,423.138550 1108.253418,411.149261 1120.543457,398.472443 
	C1123.152588,410.579956 1121.327637,422.304535 1121.820557,434.300964 
z"/>
<path fill="#FFFFFF" opacity="1.000000" stroke="none" 
	d="
M880.203186,446.059937 
	C876.433167,443.168365 873.036316,440.379333 868.270813,436.466461 
	C870.799133,434.675812 872.902466,433.719788 874.236023,432.121521 
	C876.456604,429.460297 881.098145,428.114410 879.624939,423.124542 
	C879.502075,422.708221 880.626343,421.903839 881.198120,421.305481 
	C888.065918,414.117737 894.934387,406.930603 901.824951,399.764740 
	C902.130737,399.446747 902.649475,399.333588 903.795410,398.763977 
	C904.225098,402.429657 904.873535,405.729065 904.947205,409.041290 
	C905.114685,416.566040 905.359558,424.118195 904.919800,431.620941 
	C904.153564,444.693787 893.590454,452.028534 880.203186,446.059937 
z"/>
<path fill="#FFFFFF" opacity="1.000000" stroke="none" 
	d="
M546.207458,541.991150 
	C539.219238,539.904480 541.538391,534.267456 542.426819,530.700867 
	C546.480042,514.430176 551.335205,498.359253 555.905640,482.217499 
	C557.049561,478.177338 558.206665,474.140930 560.402832,470.073700 
	C561.241089,474.055603 562.574219,478.006165 562.828674,482.025055 
	C563.742676,496.459198 566.050354,511.027435 561.838745,525.256165 
	C560.445557,529.963257 557.788452,534.544250 554.732178,538.410522 
	C553.111450,540.460815 549.396240,540.855530 546.207458,541.991150 
z"/>
<path fill="#FFFFFF" opacity="1.000000" stroke="none" 
	d="
M1034.736084,281.563354 
	C1028.388916,294.223328 1021.891785,306.378082 1016.207520,318.901794 
	C1013.927063,323.926086 1010.786743,323.551361 1006.435364,322.609619 
	C1011.201660,303.795776 1014.510620,284.537170 1023.376038,266.846191 
	C1024.953491,263.698273 1025.701538,260.162567 1029.377930,259.121307 
	C1035.159790,257.483704 1039.440186,263.241058 1037.808472,270.322021 
	C1036.965820,273.978394 1035.885254,277.579956 1034.736084,281.563354 
z"/>
<path fill="#FFFFFF" opacity="1.000000" stroke="none" 
	d="
M431.785400,401.408508 
	C432.224121,390.358459 436.452240,380.863892 441.829346,372.120453 
	C444.016602,368.563904 448.750702,366.002136 452.874603,364.399261 
	C455.866638,363.236359 460.218536,362.588531 462.828949,366.373871 
	C465.629944,370.435699 467.414825,374.862030 465.058960,379.699402 
	C458.161072,393.862915 447.061493,402.673431 430.870026,405.817261 
	C431.175598,404.231964 431.409332,403.019440 431.785400,401.408508 
z"/>
<path fill="#FFFFFF" opacity="1.000000" stroke="none" 
	d="
M809.544006,365.065857 
	C815.869324,372.452118 815.591858,379.467407 808.136780,388.223755 
	C800.562134,397.120605 791.674866,404.217194 779.124390,405.479462 
	C779.823547,393.311829 783.468323,382.019592 789.890564,371.885773 
	C793.653625,365.947876 801.919556,361.881683 809.544006,365.065857 
z"/>
</svg>